<mxfile host="app.diagrams.net" modified="2022-01-27T23:52:44.027Z" agent="5.0 (Windows NT 10.0; Win64; x64) AppleWebKit/537.36 (KHTML, like Gecko) Chrome/97.0.4692.99 Safari/537.36" etag="07I43-4aWqsv_3Gh7TDg" version="16.4.7" type="github">
  <diagram id="dq8gb7fQARIdYSocHXqy" name="Page-1">
    <mxGraphModel dx="1422" dy="758" grid="1" gridSize="10" guides="1" tooltips="1" connect="1" arrows="1" fold="1" page="1" pageScale="1" pageWidth="1169" pageHeight="1654" math="0" shadow="0">
      <root>
        <mxCell id="0" />
        <mxCell id="1" parent="0" />
        <mxCell id="Kev8f9_p8VW5dfip_5u--6" style="edgeStyle=none;rounded=0;orthogonalLoop=1;jettySize=auto;html=1;exitX=0.5;exitY=1;exitDx=0;exitDy=0;entryX=0.5;entryY=0;entryDx=0;entryDy=0;" parent="1" source="Kev8f9_p8VW5dfip_5u--1" target="Kev8f9_p8VW5dfip_5u--2" edge="1">
          <mxGeometry relative="1" as="geometry">
            <Array as="points">
              <mxPoint x="100" y="140" />
            </Array>
          </mxGeometry>
        </mxCell>
        <mxCell id="Kev8f9_p8VW5dfip_5u--8" style="edgeStyle=none;rounded=0;orthogonalLoop=1;jettySize=auto;html=1;entryX=0.5;entryY=0;entryDx=0;entryDy=0;fontSize=8;" parent="1" source="Kev8f9_p8VW5dfip_5u--1" target="Kev8f9_p8VW5dfip_5u--7" edge="1">
          <mxGeometry relative="1" as="geometry">
            <Array as="points">
              <mxPoint x="100" y="140" />
            </Array>
          </mxGeometry>
        </mxCell>
        <mxCell id="Kev8f9_p8VW5dfip_5u--1" value="SITE ?" style="rounded=0;whiteSpace=wrap;html=1;direction=west;" parent="1" vertex="1">
          <mxGeometry x="40" y="40" width="120" height="60" as="geometry" />
        </mxCell>
        <mxCell id="Kev8f9_p8VW5dfip_5u--10" style="edgeStyle=none;rounded=0;orthogonalLoop=1;jettySize=auto;html=1;exitX=0.5;exitY=1;exitDx=0;exitDy=0;fontSize=8;entryX=0.5;entryY=0;entryDx=0;entryDy=0;" parent="1" source="Kev8f9_p8VW5dfip_5u--2" target="Kev8f9_p8VW5dfip_5u--9" edge="1">
          <mxGeometry relative="1" as="geometry">
            <Array as="points">
              <mxPoint x="100" y="180" />
            </Array>
          </mxGeometry>
        </mxCell>
        <mxCell id="Kev8f9_p8VW5dfip_5u--2" value="&lt;font style=&quot;font-size: 8px&quot;&gt;OUI&lt;/font&gt;" style="rhombus;whiteSpace=wrap;html=1;fillColor=#dae8fc;strokeColor=#6c8ebf;" parent="1" vertex="1">
          <mxGeometry x="40" y="140" width="40" height="40" as="geometry" />
        </mxCell>
        <mxCell id="Kev8f9_p8VW5dfip_5u--13" style="edgeStyle=none;rounded=0;orthogonalLoop=1;jettySize=auto;html=1;exitX=1;exitY=0.5;exitDx=0;exitDy=0;entryX=0;entryY=0.5;entryDx=0;entryDy=0;fontSize=8;" parent="1" source="Kev8f9_p8VW5dfip_5u--7" target="Kev8f9_p8VW5dfip_5u--11" edge="1">
          <mxGeometry relative="1" as="geometry" />
        </mxCell>
        <mxCell id="Kev8f9_p8VW5dfip_5u--7" value="&lt;font style=&quot;font-size: 8px&quot;&gt;NON&lt;/font&gt;" style="rhombus;whiteSpace=wrap;html=1;fillColor=#f8cecc;strokeColor=#b85450;" parent="1" vertex="1">
          <mxGeometry x="120" y="140" width="40" height="40" as="geometry" />
        </mxCell>
        <mxCell id="D3do3Fapur8upNNMfMpW-5" style="edgeStyle=orthogonalEdgeStyle;rounded=0;orthogonalLoop=1;jettySize=auto;html=1;entryX=0;entryY=0.5;entryDx=0;entryDy=0;" parent="1" source="Kev8f9_p8VW5dfip_5u--9" target="Kev8f9_p8VW5dfip_5u--11" edge="1">
          <mxGeometry relative="1" as="geometry">
            <mxPoint x="180" y="160" as="targetPoint" />
          </mxGeometry>
        </mxCell>
        <mxCell id="Kev8f9_p8VW5dfip_5u--9" value="URL" style="rounded=0;whiteSpace=wrap;html=1;" parent="1" vertex="1">
          <mxGeometry x="40" y="205" width="120" height="30" as="geometry" />
        </mxCell>
        <mxCell id="Kev8f9_p8VW5dfip_5u--15" style="edgeStyle=none;rounded=0;orthogonalLoop=1;jettySize=auto;html=1;fontSize=8;entryX=0.5;entryY=0;entryDx=0;entryDy=0;" parent="1" source="Kev8f9_p8VW5dfip_5u--11" target="Kev8f9_p8VW5dfip_5u--14" edge="1">
          <mxGeometry relative="1" as="geometry">
            <Array as="points">
              <mxPoint x="260" y="200" />
            </Array>
          </mxGeometry>
        </mxCell>
        <mxCell id="Kev8f9_p8VW5dfip_5u--17" style="edgeStyle=none;rounded=0;orthogonalLoop=1;jettySize=auto;html=1;fontSize=8;entryX=0.5;entryY=0;entryDx=0;entryDy=0;" parent="1" source="Kev8f9_p8VW5dfip_5u--11" target="Kev8f9_p8VW5dfip_5u--16" edge="1">
          <mxGeometry relative="1" as="geometry">
            <Array as="points">
              <mxPoint x="260" y="200" />
            </Array>
          </mxGeometry>
        </mxCell>
        <mxCell id="Kev8f9_p8VW5dfip_5u--11" value="DOMAINE ?" style="rounded=0;whiteSpace=wrap;html=1;" parent="1" vertex="1">
          <mxGeometry x="200" y="145" width="120" height="30" as="geometry" />
        </mxCell>
        <mxCell id="Kev8f9_p8VW5dfip_5u--19" style="edgeStyle=none;rounded=0;orthogonalLoop=1;jettySize=auto;html=1;fontSize=8;exitX=0.5;exitY=1;exitDx=0;exitDy=0;" parent="1" source="Kev8f9_p8VW5dfip_5u--14" target="Kev8f9_p8VW5dfip_5u--18" edge="1">
          <mxGeometry relative="1" as="geometry">
            <Array as="points">
              <mxPoint x="260" y="240" />
            </Array>
          </mxGeometry>
        </mxCell>
        <mxCell id="Kev8f9_p8VW5dfip_5u--14" value="&lt;font style=&quot;font-size: 8px&quot;&gt;OUI&lt;/font&gt;" style="rhombus;whiteSpace=wrap;html=1;fillColor=#dae8fc;strokeColor=#6c8ebf;" parent="1" vertex="1">
          <mxGeometry x="200" y="200" width="40" height="40" as="geometry" />
        </mxCell>
        <mxCell id="D3do3Fapur8upNNMfMpW-3" style="edgeStyle=orthogonalEdgeStyle;rounded=0;orthogonalLoop=1;jettySize=auto;html=1;entryX=0;entryY=0.5;entryDx=0;entryDy=0;" parent="1" source="Kev8f9_p8VW5dfip_5u--16" target="D3do3Fapur8upNNMfMpW-1" edge="1">
          <mxGeometry relative="1" as="geometry" />
        </mxCell>
        <mxCell id="Kev8f9_p8VW5dfip_5u--16" value="&lt;font style=&quot;font-size: 8px&quot;&gt;NON&lt;/font&gt;" style="rhombus;whiteSpace=wrap;html=1;fillColor=#f8cecc;strokeColor=#b85450;" parent="1" vertex="1">
          <mxGeometry x="280" y="200" width="40" height="40" as="geometry" />
        </mxCell>
        <mxCell id="D3do3Fapur8upNNMfMpW-6" style="edgeStyle=orthogonalEdgeStyle;rounded=0;orthogonalLoop=1;jettySize=auto;html=1;" parent="1" source="Kev8f9_p8VW5dfip_5u--18" edge="1">
          <mxGeometry relative="1" as="geometry">
            <mxPoint x="480" y="160" as="targetPoint" />
            <Array as="points">
              <mxPoint x="450" y="275" />
              <mxPoint x="450" y="160" />
            </Array>
          </mxGeometry>
        </mxCell>
        <mxCell id="Kev8f9_p8VW5dfip_5u--18" value="NOM" style="rounded=0;whiteSpace=wrap;html=1;" parent="1" vertex="1">
          <mxGeometry x="200" y="260" width="120" height="30" as="geometry" />
        </mxCell>
        <mxCell id="KWt4Akiu5r29RGmFctum-5" style="edgeStyle=none;rounded=0;orthogonalLoop=1;jettySize=auto;html=1;entryX=0.5;entryY=0;entryDx=0;entryDy=0;fontSize=8;" parent="1" source="Kev8f9_p8VW5dfip_5u--20" target="Kev8f9_p8VW5dfip_5u--24" edge="1">
          <mxGeometry relative="1" as="geometry">
            <Array as="points">
              <mxPoint x="530" y="200" />
            </Array>
          </mxGeometry>
        </mxCell>
        <mxCell id="KWt4Akiu5r29RGmFctum-6" style="edgeStyle=none;rounded=0;orthogonalLoop=1;jettySize=auto;html=1;entryX=0.5;entryY=0;entryDx=0;entryDy=0;fontSize=8;" parent="1" source="Kev8f9_p8VW5dfip_5u--20" target="Kev8f9_p8VW5dfip_5u--26" edge="1">
          <mxGeometry relative="1" as="geometry">
            <Array as="points">
              <mxPoint x="530" y="200" />
            </Array>
          </mxGeometry>
        </mxCell>
        <mxCell id="Kev8f9_p8VW5dfip_5u--20" value="HEBERGEMENT" style="rounded=0;whiteSpace=wrap;html=1;" parent="1" vertex="1">
          <mxGeometry x="470" y="145" width="120" height="30" as="geometry" />
        </mxCell>
        <mxCell id="KWt4Akiu5r29RGmFctum-7" style="edgeStyle=none;rounded=0;orthogonalLoop=1;jettySize=auto;html=1;entryX=0.5;entryY=0;entryDx=0;entryDy=0;fontSize=8;exitX=0.5;exitY=1;exitDx=0;exitDy=0;" parent="1" source="Kev8f9_p8VW5dfip_5u--24" target="Kev8f9_p8VW5dfip_5u--28" edge="1">
          <mxGeometry relative="1" as="geometry">
            <Array as="points">
              <mxPoint x="530" y="240" />
            </Array>
          </mxGeometry>
        </mxCell>
        <mxCell id="Kev8f9_p8VW5dfip_5u--24" value="&lt;font style=&quot;font-size: 8px&quot;&gt;OUI&lt;/font&gt;" style="rhombus;whiteSpace=wrap;html=1;fillColor=#dae8fc;strokeColor=#6c8ebf;" parent="1" vertex="1">
          <mxGeometry x="470" y="200" width="40" height="40" as="geometry" />
        </mxCell>
        <mxCell id="D3do3Fapur8upNNMfMpW-9" style="edgeStyle=orthogonalEdgeStyle;rounded=0;orthogonalLoop=1;jettySize=auto;html=1;entryX=0;entryY=0.5;entryDx=0;entryDy=0;" parent="1" source="Kev8f9_p8VW5dfip_5u--26" target="D3do3Fapur8upNNMfMpW-8" edge="1">
          <mxGeometry relative="1" as="geometry" />
        </mxCell>
        <mxCell id="Kev8f9_p8VW5dfip_5u--26" value="&lt;font style=&quot;font-size: 8px&quot;&gt;NON&lt;/font&gt;" style="rhombus;whiteSpace=wrap;html=1;fillColor=#f8cecc;strokeColor=#b85450;" parent="1" vertex="1">
          <mxGeometry x="550" y="200" width="40" height="40" as="geometry" />
        </mxCell>
        <mxCell id="D3do3Fapur8upNNMfMpW-10" style="edgeStyle=orthogonalEdgeStyle;rounded=0;orthogonalLoop=1;jettySize=auto;html=1;entryX=0;entryY=0.5;entryDx=0;entryDy=0;" parent="1" source="Kev8f9_p8VW5dfip_5u--28" target="D3do3Fapur8upNNMfMpW-8" edge="1">
          <mxGeometry relative="1" as="geometry" />
        </mxCell>
        <mxCell id="Kev8f9_p8VW5dfip_5u--28" value="NOM" style="rounded=0;whiteSpace=wrap;html=1;" parent="1" vertex="1">
          <mxGeometry x="470" y="260" width="120" height="30" as="geometry" />
        </mxCell>
        <mxCell id="D3do3Fapur8upNNMfMpW-4" style="edgeStyle=orthogonalEdgeStyle;rounded=0;orthogonalLoop=1;jettySize=auto;html=1;entryX=0;entryY=0.5;entryDx=0;entryDy=0;" parent="1" source="D3do3Fapur8upNNMfMpW-1" target="Kev8f9_p8VW5dfip_5u--20" edge="1">
          <mxGeometry relative="1" as="geometry">
            <Array as="points">
              <mxPoint x="450" y="220" />
              <mxPoint x="450" y="160" />
            </Array>
          </mxGeometry>
        </mxCell>
        <mxCell id="D3do3Fapur8upNNMfMpW-1" value="RECHERCHE" style="rounded=0;whiteSpace=wrap;html=1;" parent="1" vertex="1">
          <mxGeometry x="350" y="205" width="90" height="30" as="geometry" />
        </mxCell>
        <mxCell id="D3do3Fapur8upNNMfMpW-8" value="OBJECTIF" style="rounded=0;whiteSpace=wrap;html=1;fillColor=#ffe6cc;strokeColor=#d79b00;" parent="1" vertex="1">
          <mxGeometry x="640" y="145" width="120" height="30" as="geometry" />
        </mxCell>
        <mxCell id="D3do3Fapur8upNNMfMpW-14" style="edgeStyle=orthogonalEdgeStyle;rounded=0;orthogonalLoop=1;jettySize=auto;html=1;" parent="1" source="D3do3Fapur8upNNMfMpW-11" target="D3do3Fapur8upNNMfMpW-13" edge="1">
          <mxGeometry relative="1" as="geometry" />
        </mxCell>
        <mxCell id="D3do3Fapur8upNNMfMpW-34" style="edgeStyle=orthogonalEdgeStyle;rounded=0;orthogonalLoop=1;jettySize=auto;html=1;entryX=0;entryY=0.5;entryDx=0;entryDy=0;" parent="1" source="D3do3Fapur8upNNMfMpW-11" target="D3do3Fapur8upNNMfMpW-33" edge="1">
          <mxGeometry relative="1" as="geometry">
            <Array as="points">
              <mxPoint x="80" y="585" />
            </Array>
          </mxGeometry>
        </mxCell>
        <mxCell id="D3do3Fapur8upNNMfMpW-11" value="OBJECTIF" style="rounded=0;whiteSpace=wrap;html=1;fillColor=#ffe6cc;strokeColor=#d79b00;" parent="1" vertex="1">
          <mxGeometry x="40" y="360" width="80" height="30" as="geometry" />
        </mxCell>
        <mxCell id="D3do3Fapur8upNNMfMpW-16" style="edgeStyle=orthogonalEdgeStyle;rounded=0;orthogonalLoop=1;jettySize=auto;html=1;entryX=0.5;entryY=0;entryDx=0;entryDy=0;" parent="1" source="D3do3Fapur8upNNMfMpW-13" target="D3do3Fapur8upNNMfMpW-15" edge="1">
          <mxGeometry relative="1" as="geometry">
            <Array as="points">
              <mxPoint x="300" y="400" />
              <mxPoint x="200" y="400" />
            </Array>
          </mxGeometry>
        </mxCell>
        <mxCell id="D3do3Fapur8upNNMfMpW-20" style="edgeStyle=orthogonalEdgeStyle;rounded=0;orthogonalLoop=1;jettySize=auto;html=1;" parent="1" source="D3do3Fapur8upNNMfMpW-13" target="D3do3Fapur8upNNMfMpW-19" edge="1">
          <mxGeometry relative="1" as="geometry">
            <Array as="points">
              <mxPoint x="300" y="400" />
              <mxPoint x="400" y="400" />
            </Array>
          </mxGeometry>
        </mxCell>
        <mxCell id="D3do3Fapur8upNNMfMpW-21" style="edgeStyle=orthogonalEdgeStyle;rounded=0;orthogonalLoop=1;jettySize=auto;html=1;entryX=0.5;entryY=0;entryDx=0;entryDy=0;" parent="1" source="D3do3Fapur8upNNMfMpW-13" target="D3do3Fapur8upNNMfMpW-17" edge="1">
          <mxGeometry relative="1" as="geometry" />
        </mxCell>
        <mxCell id="D3do3Fapur8upNNMfMpW-32" style="edgeStyle=orthogonalEdgeStyle;rounded=0;orthogonalLoop=1;jettySize=auto;html=1;" parent="1" source="D3do3Fapur8upNNMfMpW-13" target="D3do3Fapur8upNNMfMpW-31" edge="1">
          <mxGeometry relative="1" as="geometry">
            <Array as="points">
              <mxPoint x="300" y="400" />
              <mxPoint x="500" y="400" />
            </Array>
          </mxGeometry>
        </mxCell>
        <mxCell id="D3do3Fapur8upNNMfMpW-13" value="E-COMMERCE" style="rounded=1;whiteSpace=wrap;html=1;" parent="1" vertex="1">
          <mxGeometry x="240" y="365" width="120" height="20" as="geometry" />
        </mxCell>
        <mxCell id="D3do3Fapur8upNNMfMpW-15" value="QTE PRODUITS" style="rounded=0;whiteSpace=wrap;html=1;" parent="1" vertex="1">
          <mxGeometry x="160" y="420" width="80" height="30" as="geometry" />
        </mxCell>
        <mxCell id="D3do3Fapur8upNNMfMpW-17" value="LOGISTIQUE" style="rounded=0;whiteSpace=wrap;html=1;" parent="1" vertex="1">
          <mxGeometry x="260" y="420" width="80" height="30" as="geometry" />
        </mxCell>
        <mxCell id="D3do3Fapur8upNNMfMpW-25" style="edgeStyle=orthogonalEdgeStyle;rounded=0;orthogonalLoop=1;jettySize=auto;html=1;entryX=0.5;entryY=0;entryDx=0;entryDy=0;" parent="1" source="D3do3Fapur8upNNMfMpW-19" target="D3do3Fapur8upNNMfMpW-22" edge="1">
          <mxGeometry relative="1" as="geometry" />
        </mxCell>
        <mxCell id="D3do3Fapur8upNNMfMpW-27" style="edgeStyle=orthogonalEdgeStyle;rounded=0;orthogonalLoop=1;jettySize=auto;html=1;" parent="1" source="D3do3Fapur8upNNMfMpW-19" target="D3do3Fapur8upNNMfMpW-23" edge="1">
          <mxGeometry relative="1" as="geometry" />
        </mxCell>
        <mxCell id="D3do3Fapur8upNNMfMpW-19" value="PAIEMENT" style="rounded=0;whiteSpace=wrap;html=1;" parent="1" vertex="1">
          <mxGeometry x="360" y="420" width="80" height="30" as="geometry" />
        </mxCell>
        <mxCell id="D3do3Fapur8upNNMfMpW-26" style="edgeStyle=orthogonalEdgeStyle;rounded=0;orthogonalLoop=1;jettySize=auto;html=1;entryX=0.5;entryY=0;entryDx=0;entryDy=0;exitX=0.5;exitY=1;exitDx=0;exitDy=0;" parent="1" source="D3do3Fapur8upNNMfMpW-22" target="D3do3Fapur8upNNMfMpW-24" edge="1">
          <mxGeometry relative="1" as="geometry">
            <Array as="points">
              <mxPoint x="380" y="510" />
            </Array>
          </mxGeometry>
        </mxCell>
        <mxCell id="D3do3Fapur8upNNMfMpW-22" value="&lt;font style=&quot;font-size: 8px&quot;&gt;OUI&lt;/font&gt;" style="rhombus;whiteSpace=wrap;html=1;fillColor=#dae8fc;strokeColor=#6c8ebf;" parent="1" vertex="1">
          <mxGeometry x="360" y="470" width="40" height="40" as="geometry" />
        </mxCell>
        <mxCell id="D3do3Fapur8upNNMfMpW-30" style="edgeStyle=orthogonalEdgeStyle;rounded=0;orthogonalLoop=1;jettySize=auto;html=1;entryX=0;entryY=0.5;entryDx=0;entryDy=0;" parent="1" source="D3do3Fapur8upNNMfMpW-23" target="D3do3Fapur8upNNMfMpW-28" edge="1">
          <mxGeometry relative="1" as="geometry" />
        </mxCell>
        <mxCell id="D3do3Fapur8upNNMfMpW-23" value="&lt;font style=&quot;font-size: 8px&quot;&gt;NON&lt;/font&gt;" style="rhombus;whiteSpace=wrap;html=1;fillColor=#f8cecc;strokeColor=#b85450;" parent="1" vertex="1">
          <mxGeometry x="410" y="470" width="40" height="40" as="geometry" />
        </mxCell>
        <mxCell id="D3do3Fapur8upNNMfMpW-29" style="edgeStyle=orthogonalEdgeStyle;rounded=0;orthogonalLoop=1;jettySize=auto;html=1;entryX=0;entryY=0.5;entryDx=0;entryDy=0;" parent="1" source="D3do3Fapur8upNNMfMpW-24" target="D3do3Fapur8upNNMfMpW-28" edge="1">
          <mxGeometry relative="1" as="geometry">
            <Array as="points">
              <mxPoint x="460" y="545" />
              <mxPoint x="460" y="490" />
            </Array>
          </mxGeometry>
        </mxCell>
        <mxCell id="D3do3Fapur8upNNMfMpW-24" value="NOM" style="rounded=0;whiteSpace=wrap;html=1;" parent="1" vertex="1">
          <mxGeometry x="360" y="530" width="80" height="30" as="geometry" />
        </mxCell>
        <mxCell id="D3do3Fapur8upNNMfMpW-28" value="X FOIS" style="rounded=0;whiteSpace=wrap;html=1;" parent="1" vertex="1">
          <mxGeometry x="480" y="475" width="80" height="30" as="geometry" />
        </mxCell>
        <mxCell id="D3do3Fapur8upNNMfMpW-31" value="TYPE VENTE" style="rounded=0;whiteSpace=wrap;html=1;" parent="1" vertex="1">
          <mxGeometry x="460" y="420" width="80" height="30" as="geometry" />
        </mxCell>
        <mxCell id="D3do3Fapur8upNNMfMpW-44" style="edgeStyle=orthogonalEdgeStyle;rounded=0;orthogonalLoop=1;jettySize=auto;html=1;" parent="1" source="D3do3Fapur8upNNMfMpW-33" target="D3do3Fapur8upNNMfMpW-43" edge="1">
          <mxGeometry relative="1" as="geometry">
            <Array as="points">
              <mxPoint x="300" y="600" />
              <mxPoint x="300" y="600" />
            </Array>
          </mxGeometry>
        </mxCell>
        <mxCell id="D3do3Fapur8upNNMfMpW-48" style="edgeStyle=orthogonalEdgeStyle;rounded=0;orthogonalLoop=1;jettySize=auto;html=1;entryX=0.5;entryY=0;entryDx=0;entryDy=0;" parent="1" source="D3do3Fapur8upNNMfMpW-33" target="D3do3Fapur8upNNMfMpW-47" edge="1">
          <mxGeometry relative="1" as="geometry">
            <Array as="points">
              <mxPoint x="300" y="610" />
              <mxPoint x="400" y="610" />
            </Array>
          </mxGeometry>
        </mxCell>
        <mxCell id="D3do3Fapur8upNNMfMpW-49" style="edgeStyle=orthogonalEdgeStyle;rounded=0;orthogonalLoop=1;jettySize=auto;html=1;entryX=0.5;entryY=0;entryDx=0;entryDy=0;" parent="1" source="D3do3Fapur8upNNMfMpW-33" target="D3do3Fapur8upNNMfMpW-35" edge="1">
          <mxGeometry relative="1" as="geometry">
            <Array as="points">
              <mxPoint x="300" y="610" />
              <mxPoint x="200" y="610" />
            </Array>
          </mxGeometry>
        </mxCell>
        <mxCell id="D3do3Fapur8upNNMfMpW-33" value="RESERVATION" style="rounded=1;whiteSpace=wrap;html=1;" parent="1" vertex="1">
          <mxGeometry x="240" y="575" width="120" height="20" as="geometry" />
        </mxCell>
        <mxCell id="D3do3Fapur8upNNMfMpW-38" style="edgeStyle=orthogonalEdgeStyle;rounded=0;orthogonalLoop=1;jettySize=auto;html=1;entryX=0.5;entryY=0;entryDx=0;entryDy=0;" parent="1" source="D3do3Fapur8upNNMfMpW-35" target="D3do3Fapur8upNNMfMpW-36" edge="1">
          <mxGeometry relative="1" as="geometry" />
        </mxCell>
        <mxCell id="D3do3Fapur8upNNMfMpW-39" style="edgeStyle=orthogonalEdgeStyle;rounded=0;orthogonalLoop=1;jettySize=auto;html=1;" parent="1" source="D3do3Fapur8upNNMfMpW-35" target="D3do3Fapur8upNNMfMpW-37" edge="1">
          <mxGeometry relative="1" as="geometry" />
        </mxCell>
        <mxCell id="D3do3Fapur8upNNMfMpW-35" value="PAIEMENT" style="rounded=0;whiteSpace=wrap;html=1;" parent="1" vertex="1">
          <mxGeometry x="160" y="630" width="80" height="30" as="geometry" />
        </mxCell>
        <mxCell id="D3do3Fapur8upNNMfMpW-41" style="edgeStyle=orthogonalEdgeStyle;rounded=0;orthogonalLoop=1;jettySize=auto;html=1;exitX=0.5;exitY=1;exitDx=0;exitDy=0;" parent="1" source="D3do3Fapur8upNNMfMpW-36" target="D3do3Fapur8upNNMfMpW-40" edge="1">
          <mxGeometry relative="1" as="geometry">
            <Array as="points">
              <mxPoint x="200" y="720" />
            </Array>
          </mxGeometry>
        </mxCell>
        <mxCell id="D3do3Fapur8upNNMfMpW-36" value="&lt;font style=&quot;font-size: 8px&quot;&gt;OUI&lt;/font&gt;" style="rhombus;whiteSpace=wrap;html=1;fillColor=#dae8fc;strokeColor=#6c8ebf;" parent="1" vertex="1">
          <mxGeometry x="160" y="680" width="40" height="40" as="geometry" />
        </mxCell>
        <mxCell id="D3do3Fapur8upNNMfMpW-37" value="&lt;font style=&quot;font-size: 8px&quot;&gt;NON&lt;/font&gt;" style="rhombus;whiteSpace=wrap;html=1;fillColor=#f8cecc;strokeColor=#b85450;" parent="1" vertex="1">
          <mxGeometry x="200" y="680" width="40" height="40" as="geometry" />
        </mxCell>
        <mxCell id="D3do3Fapur8upNNMfMpW-40" value="NOM" style="rounded=0;whiteSpace=wrap;html=1;" parent="1" vertex="1">
          <mxGeometry x="160" y="740" width="80" height="30" as="geometry" />
        </mxCell>
        <mxCell id="D3do3Fapur8upNNMfMpW-43" value="TICKET" style="rounded=0;whiteSpace=wrap;html=1;" parent="1" vertex="1">
          <mxGeometry x="260" y="630" width="80" height="30" as="geometry" />
        </mxCell>
        <mxCell id="D3do3Fapur8upNNMfMpW-47" value="PLANNING" style="rounded=0;whiteSpace=wrap;html=1;" parent="1" vertex="1">
          <mxGeometry x="360" y="630" width="80" height="30" as="geometry" />
        </mxCell>
      </root>
    </mxGraphModel>
  </diagram>
</mxfile>
